<svg id="visual" viewBox="0 0 1536 729" width="1536" height="729" xmlns="http://www.w3.org/2000/svg" xmlns:xlink="http://www.w3.org/1999/xlink" version="1.1"><rect x="0" y="0" width="1536" height="729" fill="#faf4f3"></rect><defs><linearGradient id="grad1_0" x1="52.5%" y1="0%" x2="100%" y2="100%"><stop offset="7.860082304526745%" stop-color="#faf4f3" stop-opacity="1"></stop><stop offset="92.13991769547326%" stop-color="#faf4f3" stop-opacity="1"></stop></linearGradient></defs><defs><linearGradient id="grad2_0" x1="0%" y1="0%" x2="47.5%" y2="100%"><stop offset="7.860082304526745%" stop-color="#faf4f3" stop-opacity="1"></stop><stop offset="92.13991769547326%" stop-color="#faf4f3" stop-opacity="1"></stop></linearGradient></defs><g transform="translate(1536, 0)"><path d="M0 437.4C-34.1 379.2 -68.2 321 -128.2 309.5C-188.2 298 -274.1 333 -309.3 309.3C-344.5 285.5 -328.9 202.9 -341.8 141.6C-354.7 80.2 -396.1 40.1 -437.4 0L0 0Z" fill="#327eb2"></path></g><g transform="translate(0, 729)"><path d="M0 -437.4C56.7 -431.2 113.4 -425 167.4 -404.1C221.4 -383.2 272.6 -347.7 301.9 -301.9C331.2 -256.2 338.6 -200.1 357.5 -148.1C376.5 -96.1 406.9 -48 437.4 0L0 0Z" fill="#327eb2"></path></g></svg>