<svg id="visual" viewBox="0 0 1536 729" width="1536" height="729" xmlns="http://www.w3.org/2000/svg" xmlns:xlink="http://www.w3.org/1999/xlink" version="1.1"><rect x="0" y="0" width="1536" height="729" fill="#FFFFFF"></rect><path d="M0 305L28.5 317.8C57 330.7 114 356.3 170.8 347.2C227.7 338 284.3 294 341.2 280C398 266 455 282 512 275C569 268 626 238 682.8 245C739.7 252 796.3 296 853.2 299C910 302 967 264 1024 256.2C1081 248.3 1138 270.7 1194.8 295.5C1251.7 320.3 1308.3 347.7 1365.2 324.5C1422 301.3 1479 227.7 1507.5 190.8L1536 154L1536 0L1507.5 0C1479 0 1422 0 1365.2 0C1308.3 0 1251.7 0 1194.8 0C1138 0 1081 0 1024 0C967 0 910 0 853.2 0C796.3 0 739.7 0 682.8 0C626 0 569 0 512 0C455 0 398 0 341.2 0C284.3 0 227.7 0 170.8 0C114 0 57 0 28.5 0L0 0Z" fill="#327eb2" stroke-linecap="round" stroke-linejoin="miter"></path></svg>